<svg class="border shadow-md" viewBox="0 0 957.44 538.5600000000001" xmlns="http://www.w3.org/2000/svg" preserveAspectRatio="none" style="width: 957.44px; height: 538.56px;"><rect class="bg" id="bg" x="0" y="0" width="957.44" height="538.5600000000001" fill="#F5F6FA"/><g transform="translate(-336.6 201.96000000000004) scale(1)"><path d="M526,482.5Q505,628,360.5,587Q216,546,141.5,441.5Q67,337,121,197Q175,57,334,61Q493,65,520,201Q547,337,526,482.5Z" fill="#4f46e5" stroke="none" stroke-width="10"/></g><g transform="translate(620.84 -336.6) scale(1)"><path d="M549.5,475.5Q497,614,354,584.5Q211,555,166,446Q121,337,166,228.5Q211,120,333,126Q455,132,528.5,234.5Q602,337,549.5,475.5Z" fill="#4f46e5" stroke="none" stroke-width="10"/></g></svg>